<?xml version="1.0" encoding="UTF-8" standalone="no"?>
<!-- Created with Inkscape (http://www.inkscape.org/) -->

<svg
   version="1.1"
   id="svg1"
   width="3828.7847"
   height="1034.3861"
   viewBox="0 0 3828.7846 1034.3861"
   sodipodi:docname="a5f38a20caf62f5e6a46190ae604ffa3.eps"
   xmlns:inkscape="http://www.inkscape.org/namespaces/inkscape"
   xmlns:sodipodi="http://sodipodi.sourceforge.net/DTD/sodipodi-0.dtd"
   xmlns="http://www.w3.org/2000/svg"
   xmlns:svg="http://www.w3.org/2000/svg">
  <defs
     id="defs1" />
  <sodipodi:namedview
     id="namedview1"
     pagecolor="#ffffff"
     bordercolor="#000000"
     borderopacity="0.25"
     inkscape:showpageshadow="2"
     inkscape:pageopacity="0.0"
     inkscape:pagecheckerboard="0"
     inkscape:deskcolor="#d1d1d1">
    <inkscape:page
       x="-3.281971"
       y="-3.7760265"
       inkscape:label="1"
       id="page1"
       width="3837.04"
       height="1043.7467"
       margin="0"
       bleed="0" />
  </sodipodi:namedview>
  <g
     id="g1"
     inkscape:groupmode="layer"
     inkscape:label="1"
     transform="translate(-3.2819711,-3.7760266)">
    <g
       id="group-R5">
      <path
         id="path2"
         d="M 7828.15,3038.06 C 7380.83,2683.9 6616.65,2031.54 6281.18,1938.38 5982.94,1975.65 5722.02,2385.7 5610.19,2683.9 4641,2012.93 2217.96,1491.08 1472.43,2087.51 c -260.91,204.97 -428.66,372.75 -428.66,615.03 0,149.14 37.29,279.62 93.19,428.68 55.9,149.12 167.74,316.89 298.22,484.62 l 428.66,540.5 c -1155.578,111.86 -503.23,652.35 615.06,652.35 391.42,391.42 782.82,782.83 1043.77,950.58 260.94,167.72 484.59,242.28 689.63,242.28 18.62,0 37.29,0 55.91,-18.62 18.62,-18.66 18.62,-37.28 18.62,-55.94 0,-18.63 0,-37.25 -18.62,-74.53 -18.62,-37.27 -37.29,-55.93 -74.55,-93.17 l -689.61,-764.22 c 652.31,93.2 1211.46,242.33 1621.54,428.7 410.04,186.38 577.79,391.43 577.79,577.78 0,111.85 -74.56,205.04 -223.66,260.95 -149.13,74.57 -335.51,93.19 -577.83,93.19 -335.45,0 -726.87,-37.3 -1155.57,-130.48 -428.69,-74.53 -876.01,-205 -1379.23,-372.75 167.74,-55.93 186.37,-149.11 37.28,-279.59 L 1397.89,5311.93 c -111.85,-18.62 -745.542,-335.48 -615.07,130.47 111.813,410.06 577.78,969.2 820.07,1118.32 111.85,74.57 260.95,149.1 465.98,205.01 1006.49,298.21 2944.88,782.81 4007.26,167.74 C 6709.86,6392.95 6187.98,5442.4 5498.35,5200.11 4883.27,4995.06 4137.74,4734.13 3093.98,4622.32 L 2870.32,4417.3 c 577.78,-111.83 3354.94,-242.29 2255.27,-1528.37 -55.94,-55.91 -111.84,-130.48 -167.75,-186.39 205,93.23 428.66,223.71 633.7,447.33 37.29,74.57 74.56,149.13 130.48,223.69 149.1,205.02 335.49,409.99 596.43,577.77 577.79,410.05 1286.04,745.51 2012.96,838.72 93.18,18.63 335.47,-18.65 428.66,-111.84 74.56,-93.2 111.85,-130.48 149.13,-205.04 18.62,-18.62 0,-74.51 -18.66,-93.17 -55.91,-37.29 -186.37,-111.82 -260.94,-149.1 316.85,-167.76 335.51,-354.13 -149.1,-894.66 -782.81,-1062.37 149.1,-913.31 931.93,-130.47 v 18.66 c 205.02,205.02 391.4,391.4 540.49,559.1 149.18,167.79 205.08,242.32 335.48,410.09 -223.6,37.28 -596.38,-74.57 -689.61,0 -37.24,55.91 111.85,279.54 242.33,428.68 335.48,447.31 577.78,465.95 1099.68,484.59 18.6,37.29 93.2,93.19 111.8,149.1 279.6,633.72 1491.1,820.11 633.7,-130.47 130.5,0 372.8,-74.53 447.3,-37.28 18.7,18.65 -55.9,-279.57 -111.8,-354.13 -111.8,-205.01 -316.9,-465.94 -447.3,-521.89 -55.9,-37.24 -298.2,-55.91 -391.4,-55.91 -74.6,0 -130.5,18.67 -167.8,18.67 -37.2,0 -74.5,-18.67 -111.8,-18.67 -223.7,-260.9 -391.4,-521.85 -521.9,-801.43 -130.5,-279.6 -205,-540.56 -205,-745.6 0,-74.48 18.6,-130.47 55.9,-167.7 37.3,-37.27 93.2,-55.91 167.8,-55.91 111.8,0 279.5,74.56 521.8,223.62 205.1,130.47 484.7,335.51 820.1,615.12 37.3,74.56 74.6,167.7 111.9,260.92 354.1,969.2 2087.5,1621.55 1286,391.42 -167.7,-260.94 -447.3,-484.63 -782.8,-745.56 -18.6,-55.91 -18.6,-93.17 -37.3,-149.07 0,-37.31 0,-74.57 -18.6,-111.87 -93.2,-260.96 93.2,-410.01 391.4,-354.1 130.5,18.66 316.9,74.56 540.5,223.61 186.4,111.89 372.8,242.36 577.8,428.75 55.9,205.03 149.1,428.63 260.9,652.34 205.1,391.37 559.2,820.05 1062.5,1379.22 465.9,521.89 1845.1,1733.36 2199.3,1714.75 55.9,0 93.1,-18.66 130.5,-55.92 37.2,-37.27 55.9,-74.55 55.9,-130.46 0,-167.75 -391.4,-615.08 -932,-1267.41 -540.5,-652.36 -1416.5,-1397.9 -2311.1,-2311.18 V 2888.9 c 484.5,484.64 2404.4,2031.6 2646.6,1826.56 1081,-950.52 -876,-1696.08 -1136.9,-1901.13 l -74.5,-55.91 c 410,-801.4 1192.8,-55.91 1901,540.56 l 74.6,-298.26 c -466,-465.91 -838.7,-782.77 -1136.9,-969.21 -410.1,-260.93 -801.5,-428.65 -1174.2,-74.48 -149.2,149.04 -410.1,409.99 -577.8,764.16 -242.3,-111.88 -242.3,-186.38 -335.5,-354.17 -298.3,-596.44 -689.7,-521.89 -689.7,391.41 -260.9,-279.6 -484.6,-484.57 -689.6,-633.69 -260.9,-186.38 -521.9,-279.59 -726.9,-279.59 -223.6,0 -410,93.21 -540.5,260.93 -130.4,167.78 -186.4,410.08 -186.4,708.27 -335.5,-316.86 -652.3,-559.14 -931.9,-745.53 -354.1,-223.67 -652.3,-354.15 -876,-354.15 -167.75,0 -279.58,37.32 -372.77,130.48 -93.18,74.57 -130.47,205.02 -130.47,354.16 0,130.47 18.66,260.94 74.55,410 55.92,149.12 130.49,316.92 223.66,484.64 C 9300.61,2497.51 6653.95,465.969 7828.15,3038.06 Z M 2665.32,4119.07 2311.19,3727.65 c -93.22,-111.81 -167.75,-205.04 -223.69,-316.85 -55.91,-93.13 -93.19,-186.36 -93.19,-242.27 0,-111.83 74.57,-205.04 242.32,-279.61 167.74,-93.15 354.12,-130.48 577.78,-130.48 391.42,0 764.16,93.23 1136.95,279.6 372.75,186.4 559.17,354.1 559.17,521.89 0,111.81 -167.75,223.62 -484.61,316.85 -316.88,111.82 -764.2,186.38 -1360.6,242.29 z m 12636.88,-950.53 298.1,-167.79 c 354.2,260.94 727,484.62 876.1,615.1 577.8,521.88 -130.5,335.51 -372.8,167.71 -223.7,-167.71 -521.8,-354.09 -801.4,-615.02 z m -2031.6,1807.91 c 0,167.74 74.5,316.86 223.6,465.95 149.1,149.13 298.3,223.66 447.3,223.66 74.6,0 149.1,-18.62 186.4,-55.91 37.3,-37.29 55.9,-111.82 55.9,-186.39 0,-149.1 -74.5,-298.22 -223.6,-447.31 -149.1,-167.75 -279.6,-242.31 -428.7,-242.31 -74.5,0 -149.1,18.65 -205,74.56 -37.3,37.28 -55.9,93.19 -55.9,167.75 z M 8256.83,4063.16 C 5945.65,3448.12 5945.65,2478.86 6337.07,2478.86 c 130.47,0 372.78,149.12 764.18,465.98 391.39,335.51 764.18,633.75 1155.58,1118.32 v 0"
         style="fill:#c1306a;fill-opacity:1;fill-rule:nonzero;stroke:none"
         transform="matrix(0.13333333,0,0,-0.13333333,0,1043.7467)" />
      <path
         id="path3"
         d="M 4641,7772.2 C 4212.3,7362.16 2721.22,5181.49 1341.95,3466.7 l -204.99,-242.26 -37.29,-205.04 c 0,-37.26 -1752.01,-111.83 -782.818,-2292.49 C 205.035,540.449 111.813,540.449 93.1953,55.8789 130.484,37.2188 167.758,37.2188 205.043,55.8789 223.672,354.082 298.23,577.77 670.992,857.371 1006.5,1136.89 1994.31,1882.48 2236.63,2795.76 c 18.62,93.14 55.91,167.71 93.18,260.94 L 5386.5,7287.57 c 0,0.02 -391.38,652.39 -745.5,484.63"
         style="fill:#f5d817;fill-opacity:1;fill-rule:nonzero;stroke:none"
         transform="matrix(0.13333333,0,0,-0.13333333,0,1043.7467)" />
      <path
         id="path4"
         d="M 4957.84,7436.72 C 4547.78,6933.48 3410.86,5218.74 2031.59,3504.03 l -242.28,-18.66 c 391.41,-205.02 316.84,-335.49 447.31,-671 18.62,-37.26 55.91,186.38 93.18,242.34 l 3056.69,4230.88 c 0,0 -149.08,260.95 -354.13,410.08 -93.19,74.53 111.85,-223.66 -74.52,-260.95 v 0"
         style="fill:#e3b21a;fill-opacity:1;fill-rule:nonzero;stroke:none"
         transform="matrix(0.13333333,0,0,-0.13333333,0,1043.7467)" />
      <path
         id="path5"
         d="M 5200.12,7250.35 C 4790.08,6747.1 3895.45,5256.02 2516.18,3522.63 c -18.62,74.56 -37.29,149.12 -18.62,242.35 -242.31,-167.8 -410.07,-559.19 -260.94,-969.2 18.62,93.15 93.18,204.97 93.18,260.94 l 3056.69,4230.87 c -18.61,18.66 -37.25,186.43 -186.38,298.24 -93.18,74.56 111.86,-242.29 0.01,-335.48"
         style="fill:#7d4e27;fill-opacity:1;fill-rule:nonzero;stroke:none"
         transform="matrix(0.13333333,0,0,-0.13333333,0,1043.7467)" />
      <path
         id="path6"
         d="m 1360.61,2385.71 c -74.56,-503.21 -410.028,-689.6 -484.598,-764.16 -18.649,-18.66 0,-335.51 -37.282,-633.698 298.22,316.848 1845.21,1696.048 782.82,2236.598 465.94,-372.77 -130.47,-801.5 -260.94,-838.74"
         style="fill:#7d4e27;fill-opacity:1;fill-rule:nonzero;stroke:none"
         transform="matrix(0.13333333,0,0,-0.13333333,0,1043.7467)" />
      <path
         id="path7"
         d="M 969.203,1863.84 C 1621.55,2497.51 987.82,3038.07 540.512,2628 -130.469,2012.94 447.32,1341.95 969.203,1863.84"
         style="fill:#63432a;fill-opacity:1;fill-rule:nonzero;stroke:none"
         transform="matrix(0.13333333,0,0,-0.13333333,0,1043.7467)" />
      <path
         id="path8"
         d="m 21620.6,3336.26 c -149.1,-130.47 -1658.8,-1379.2 -1901.1,-1341.95 -503.2,55.89 -1043.8,1043.75 -782.8,1528.32 93.1,167.78 205,410.07 410.1,615.11 652.2,670.97 1826.4,1211.46 2851.6,1435.14 111.8,18.66 223.6,18.66 372.8,18.66 260.9,-74.56 503.2,-279.6 484.5,-484.61 0,-37.29 -18.5,-55.9 -37.2,-74.56 -18.7,-18.62 -74.6,-37.3 -130.5,-74.57 l -167.8,-93.19 c 186.5,-55.9 261,-167.74 279.6,-316.85 37.3,-260.94 -279.6,-577.77 -521.9,-876.01 -465.9,-559.12 -410,-1081.01 279.7,-745.49 447.3,204.97 1099.6,857.29 1528.3,1174.18 577.8,615.06 1565.6,782.82 987.8,-149.09 -167.7,-260.94 -484.6,-484.64 -820.1,-745.56 0,-18.6 -74.5,-149.07 -74.5,-167.73 0,-298.26 149.1,-465.97 428.6,-428.73 261,37.32 484.7,167.79 671.1,335.51 205,186.4 391.4,391.42 577.7,633.75 -55.9,0 -149.1,0 -167.7,55.92 -205,316.85 205,801.42 298.2,894.63 18.7,18.61 615.1,596.42 764.2,316.85 37.3,-55.91 -18.7,-223.65 -55.9,-279.61 242.3,18.66 447.3,74.57 708.2,93.23 111.8,18.63 428.8,74.54 466,18.63 298.2,-316.85 279.6,-596.45 -37.3,-876.02 -298.2,-260.95 -484.6,-503.2 -577.8,-670.99 -186.4,-316.87 -37.3,-559.14 335.5,-428.68 223.7,74.57 521.9,335.51 876,652.37 l 74.6,-260.96 c -447.4,-484.64 -876,-838.73 -1174.2,-1043.78 -782.9,-503.19 -1174.3,260.96 -857.4,913.31 111.8,242.3 316.8,521.88 633.7,820.06 -186.4,-37.25 -354.1,-74.48 -484.6,-93.14 -130.4,-18.66 -242.3,-37.31 -354.1,-55.91 -111.9,-167.79 -167.8,-279.58 -298.2,-428.71 -391.4,-428.67 -764.3,-857.34 -1043.8,-1062.37 -260.9,-186.36 -540.5,-316.83 -764.2,-316.83 -577.8,-18.66 -726.9,596.36 -708.2,1025.09 0,55.91 18.6,111.83 18.6,149.07 -671,-652.36 -1789.3,-1341.96 -1975.7,-1323.29 -931.9,130.47 -223.6,1304.7 -111.8,1658.8 z m 3653.1,1714.76 c -18.6,167.71 74.6,316.85 223.7,465.95 149.1,167.75 671,354.11 708.3,-37.3 18.6,-130.48 -74.6,-279.57 -205.1,-447.31 -149.1,-167.76 -279.6,-242.3 -428.7,-242.3 -74.5,0 -149.1,18.63 -205,74.54 -74.5,55.94 -93.2,111.85 -93.2,186.42 z m -3093.9,-410.09 c -1006.6,-260.92 -1565.7,-615.06 -1938.4,-782.8 -894.7,-447.32 -987.9,-1957.05 410,-633.68 428.7,372.73 1025.1,875.99 1528.4,1416.48"
         style="fill:#c1306a;fill-opacity:1;fill-rule:nonzero;stroke:none"
         transform="matrix(0.13333333,0,0,-0.13333333,0,1043.7467)" />
      <path
         id="path9"
         d="m 4734.17,6355.69 c -298.21,-18.62 -615.06,-55.91 -950.57,-111.83 -130.48,-18.65 -260.94,-55.93 -391.42,-74.57 -316.84,-74.55 -633.69,-167.74 -987.82,-279.55 167.75,-55.94 186.39,-149.12 37.3,-279.59 L 1435.18,5349.19 c -111.86,-18.61 -745.535,-335.46 -615.078,130.48 111.816,410.07 577.788,969.19 820.078,1118.32 111.85,74.53 260.95,149.11 465.97,205.01 521.88,149.13 1286.04,354.13 2050.24,428.68 391.39,37.29 782.78,37.29 1155.58,-18.62 l -577.8,-857.37"
         style="fill:#c1306a;fill-opacity:1;fill-rule:nonzero;stroke:none"
         transform="matrix(0.13333333,0,0,-0.13333333,0,1043.7467)" />
    </g>
  </g>
</svg>
